<?xml version="1.0" encoding="UTF-8"?>
<svg width="180px" height="180px" viewBox="0 0 180 180" version="1.1" xmlns="http://www.w3.org/2000/svg" xmlns:xlink="http://www.w3.org/1999/xlink">
    <title>Artboard</title>
    <defs>
        <linearGradient x1="65.0513887%" y1="87.7152979%" x2="27.1232618%" y2="16.831203%" id="linearGradient-1">
            <stop stop-color="#32E4BF" offset="0%"></stop>
            <stop stop-color="#21A1DE" offset="100%"></stop>
        </linearGradient>
        <linearGradient x1="-2.22044605e-14%" y1="8.67768595%" x2="100%" y2="91.322314%" id="linearGradient-2">
            <stop stop-color="#32E4BF" offset="0%"></stop>
            <stop stop-color="#21A1DE" offset="100%"></stop>
        </linearGradient>
        <linearGradient x1="-2.22044605e-14%" y1="11.692172%" x2="100%" y2="88.307828%" id="linearGradient-3">
            <stop stop-color="#32E4BF" offset="0%"></stop>
            <stop stop-color="#21A1DE" offset="100%"></stop>
        </linearGradient>
    </defs>
    <g id="Artboard" stroke="none" stroke-width="1" fill="none" fill-rule="evenodd">
        <rect id="Rectangle" fill="#FFFFFF" x="0" y="0" width="180" height="180"></rect>
        <g id="Group" transform="translate(22.000000, 26.433600)">
            <g id="Logo" transform="translate(36.000367, 0.000000)">
                <g id="Group-3" transform="translate(9.883233, 0.000000)" fill="url(#linearGradient-1)">
                    <path d="M22.376,71.422 L11.692,81.566 L22.378,79.164 L22.376,71.422 Z M22.376,33.976 L44.752,46.68 L29.358,14.548 C25.574,9.398 22.778,4.352 22.396,0.018 L22.388,0 L22.376,33.976 Z M22.376,33.976 L0,46.68 L22.388,58.108 L22.376,33.976 Z M44.752,50.21 L26.218,67.718 C24.73,66.544 23.3879952,64.984 22.3879952,63.236 C22.376,63.214 44.752,50.21 44.752,50.21 L44.752,50.21 Z" id="Fill-1"></path>
                </g>
                <polygon id="Fill-4" fill="url(#linearGradient-2)" points="32.2732868 79.1298887 43.2712277 81.4977909 32.2712277 71.4977909"></polygon>
                <g id="Group-8" transform="translate(0.000000, 14.548800)" fill="url(#linearGradient-3)">
                    <path d="M61.2144325,25.59 C56.4324325,19.23 46.1784325,9.444 39.2404325,0 L54.6244325,32.11 L54.6344325,32.116 L54.6284325,32.12 L54.6344325,32.132 L54.6204325,32.124 L32.2704325,43.558 L32.2584325,19.428 L9.88243252,32.132 L25.2764325,0 C18.3404325,9.444 8.08643252,19.228 3.30243252,25.59 C-3.38356748,34.482 0.722432519,47.35 9.88643252,53.558 L9.88243252,53.564 C9.94443252,53.606 10.0104325,53.644 10.0744325,53.684 C10.5204325,53.98 10.9744325,54.266 11.4424325,54.528 C11.5304325,54.576 11.7024325,54.67 11.7044325,54.67 L11.7424325,54.658 C12.0724325,54.834 12.4184325,55.004 12.7444325,55.148 C12.8864325,55.212 13.1024325,55.298 13.1284325,55.31 C13.7484325,55.568 14.3784325,55.774 15.0124325,55.946 C15.1004325,55.966 15.1884325,55.992 15.2764325,56.014 C15.3364325,56.03 15.3984325,56.048 15.4584325,56.06 C15.6944325,56.118 15.9304325,56.164 16.1664325,56.21 C16.3244325,56.238 16.4804325,56.262 16.6384325,56.288 C16.6744325,56.294 16.7104325,56.298 16.7464325,56.304 C16.9544325,56.336 17.1624325,56.366 17.3704325,56.386 C17.6344325,56.414 17.8984325,56.432 18.1644325,56.446 C18.3064325,56.454 18.4504325,56.466 18.5944325,56.468 C19.0124325,56.478 19.4284325,56.472 19.8444325,56.448 C19.9184325,56.444 19.9904325,56.434 20.0624325,56.428 C20.4244325,56.402 20.7844325,56.366 21.1404325,56.312 C21.2284325,56.298 21.3164325,56.286 21.4044325,56.27 C21.5404325,56.248 21.6744325,56.216 21.8084325,56.19 C22.0324325,56.148 22.2564325,56.11 22.4764325,56.056 C22.5364325,56.046 22.5924325,56.032 22.6524325,56.016 C22.6544325,56.016 22.6564325,56.016 22.6604325,56.014 C24.7464325,55.492 26.7124325,54.518 28.4264325,53.162 L9.88243252,35.66 L32.2704325,48.688 L54.6344325,35.66 L36.1024325,53.17 C37.8124325,54.524 39.7744325,55.492 41.8584325,56.014 C41.8604325,56.016 41.8624325,56.016 41.8644325,56.016 C41.9224325,56.032 41.9824325,56.046 42.0404325,56.056 C42.2604325,56.11 42.4844325,56.148 42.7084325,56.19 C42.8424325,56.216 42.9764325,56.248 43.1124325,56.27 C43.2004325,56.286 43.2884325,56.298 43.3764325,56.312 C43.7324325,56.366 44.0924325,56.402 44.4544325,56.428 C44.5264325,56.434 44.5984325,56.444 44.6724325,56.448 C45.0884325,56.472 45.5064325,56.478 45.9224325,56.468 C46.0664325,56.466 46.2104325,56.454 46.3544325,56.446 C46.6184325,56.432 46.8824325,56.414 47.1464325,56.386 C47.3544325,56.366 47.5624325,56.336 47.7704325,56.304 L47.8804325,56.288 C48.0364325,56.262 48.1944325,56.238 48.3504325,56.21 C48.5884325,56.164 48.8224325,56.118 49.0584325,56.06 C49.1204325,56.048 49.1804325,56.03 49.2424325,56.014 C49.3304325,55.992 49.4184325,55.966 49.5064325,55.946 C50.1384325,55.774 50.7684325,55.568 51.3884325,55.31 C51.4144325,55.298 51.6304325,55.212 51.7724325,55.148 C52.0984325,55.004 52.4444325,54.834 52.7744325,54.658 L52.8124325,54.67 C52.8144325,54.67 52.9884325,54.576 53.0744325,54.528 C53.5444325,54.266 53.9964325,53.98 54.4424325,53.684 C54.5064325,53.644 54.5724325,53.606 54.6344325,53.564 L54.6304325,53.558 C63.7944325,47.35 67.9024325,34.482 61.2144325,25.59" id="Fill-6"></path>
                </g>
            </g>
            <g id="Text" transform="translate(0.000000, 92.233546)" fill="#3E4451">
                <polygon id="Shape" points="7.35827725 10.6741393 13.1973082 0 14.7074024 0 8.10874832 11.9903923 6.61695828 11.9903923 0 0 1.51009421 0"></polygon>
                <polygon id="Shape" points="16.2632571 11.9903923 16.2632571 0.0192153723 17.5445491 0.0192153723 17.5445491 12 16.2632571 12"></polygon>
                <path d="M31.5472409,2.01761409 L31.5472409,5.42834267 C31.5472409,6.01441153 31.345895,6.60048038 30.9340511,7.0040032 C30.5771198,7.35948759 30.1469717,7.53242594 29.643607,7.53242594 L27.8955585,7.53242594 L31.4831763,12 L29.7808883,12 L26.2115747,7.53242594 L21.4067295,7.53242594 L21.4067295,12 L20.1254374,12 L20.1254374,0.0192153723 L29.5520861,0.0192153723 C30.1103634,0.0192153723 30.6686406,0.230584468 31.0438762,0.662930344 C31.3733513,1.0376301 31.5472409,1.48919135 31.5472409,2.01761409 Z M22.0199192,6.16813451 L29.6344549,6.16813451 C29.7991925,6.16813451 29.9456258,6.11048839 30.064603,5.98558847 C30.1835801,5.86068855 30.2384926,5.71657326 30.2384926,5.53402722 L30.2384926,2.01761409 C30.2384926,1.84467574 30.1835801,1.69095276 30.064603,1.55644516 C29.9456258,1.43154524 29.8083445,1.36429143 29.6344549,1.36429143 L22.0199192,1.36429143 C21.8551817,1.36429143 21.7087483,1.43154524 21.5806191,1.55644516 C21.461642,1.68134508 21.3975774,1.83506805 21.3975774,2.01761409 L21.3975774,5.53402722 C21.3975774,5.70696557 21.461642,5.86068855 21.5806191,5.98558847 C21.7087483,6.1008807 21.8551817,6.16813451 22.0199192,6.16813451 Z" id="Shape"></path>
                <polygon id="Shape" points="32.6546433 0 44.0764468 0 44.0764468 1.34507606 39.0153432 1.34507606 39.0153432 11.9903923 37.7340511 11.9903923 37.7340511 1.35468375 32.6546433 1.35468375"></polygon>
                <path d="M55.7728129,9.99199359 L55.7728129,0 L57.054105,0 L57.054105,9.99199359 C57.054105,10.5492394 56.8710633,11.020016 56.4958277,11.4043235 C56.1297443,11.7982386 55.67214,11.9903923 55.1504711,11.9903923 L47.5359354,11.9903923 C47.0051144,11.9903923 46.5566622,11.7982386 46.1905787,11.4043235 C45.8244953,11.020016 45.6323015,10.5396317 45.6323015,9.99199359 L45.6323015,0 L46.9135935,0 L46.9135935,9.99199359 C46.9135935,10.1649319 46.9776581,10.3186549 47.0966353,10.4531625 C47.2156124,10.5780624 47.3620458,10.6453163 47.5359354,10.6453163 L55.1504711,10.6453163 C55.3152086,10.6453163 55.461642,10.5780624 55.5897712,10.4531625 C55.7087483,10.3282626 55.7728129,10.1745396 55.7728129,9.99199359 Z" id="Shape"></path>
                <polygon id="Shape" points="69.2629879 1.35468375 60.1200538 1.35468375 60.1200538 5.31305044 66.6729475 5.31305044 66.6729475 6.67734187 60.1200538 6.67734187 60.1200538 10.6453163 69.2629879 10.6453163 69.2629879 11.9903923 58.8387618 11.9903923 58.8387618 0 69.2629879 0"></polygon>
                <path d="M73.7017497,0.0192153723 L82.7623149,0.0192153723 C83.402961,0.0192153723 83.9612382,0.259407526 84.4279946,0.739791833 C84.894751,1.22017614 85.1235532,1.806245 85.1235532,2.47878303 L85.1235532,5.57245797 C85.1235532,6.25460368 84.894751,6.83106485 84.4279946,7.31144916 C83.9612382,7.79183347 83.402961,8.03202562 82.7623149,8.03202562 L76.1636608,8.05124099 C76.1911171,8.05124099 76.2094213,8.08006405 76.2094213,8.14731785 C76.1911171,8.14731785 76.1728129,8.13771017 76.1636608,8.12810248 L76.1636608,11.9807846 L73.7017497,11.9807846 L73.7017497,0.0192153723 Z M76.1636608,2.60368295 L76.1636608,5.44755805 L82.6341857,5.44755805 L82.6341857,2.60368295 L76.1636608,2.60368295 Z" id="Shape"></path>
                <path d="M88.9674293,0 L95.6942127,0 C96.3348587,0 96.8931359,0.240192154 97.3507402,0.720576461 C97.8083445,1.20096077 98.0371467,1.78702962 98.0371467,2.45956765 L98.0371467,9.52121697 C98.0371467,10.2033627 97.8083445,10.7798239 97.3507402,11.2602082 C96.8931359,11.7405925 96.3348587,11.9807846 95.6942127,11.9807846 L88.9674293,11.9807846 C88.3084791,11.9807846 87.759354,11.7405925 87.3017497,11.2602082 C86.8441454,10.7798239 86.6153432,10.2033627 86.6153432,9.51160929 L86.6153432,2.44995997 C86.6153432,1.75820657 86.8441454,1.1817454 87.3017497,0.701361089 C87.7502019,0.240192154 88.3084791,0 88.9674293,0 Z M89.0772544,3.122498 L89.0772544,8.877502 C89.0772544,9.16573259 89.2969044,9.39631705 89.571467,9.39631705 L95.0535666,9.39631705 C95.3281292,9.39631705 95.5477793,9.16573259 95.5477793,8.877502 L95.5477793,3.122498 C95.5477793,2.83426741 95.3281292,2.60368295 95.0535666,2.60368295 L89.571467,2.60368295 C89.2969044,2.60368295 89.0772544,2.83426741 89.0772544,3.122498 Z" id="Shape"></path>
                <polygon id="Shape" points="102.83284 5.99519616 105.294751 2.9111289 107.610229 0 110.886676 0 106.100135 5.99519616 110.886676 11.9711769 107.610229 12"></polygon>
                <polygon id="Shape" points="102.274563 7.29223379 102.274563 11.9903923 99.8034993 11.9903923 99.8034993 0 102.274563 0 102.274563 6.30264211"></polygon>
                <polygon id="Shape" points="122.61965 0 122.61965 2.59407526 114.556662 2.59407526 114.556662 4.68855084 120.24926 4.68855084 120.24926 7.2826261 114.556662 7.2826261 114.556662 9.37710168 122.61965 9.37710168 122.61965 11.9711769 112.067295 11.9711769 112.067295 0"></polygon>
                <path d="M127.030956,8.14731785 L127.030956,12 L124.569044,12 L124.569044,0.0192153723 L133.62961,0.0192153723 C134.270256,0.0192153723 134.828533,0.259407526 135.295289,0.739791833 C135.762046,1.22017614 135.990848,1.806245 135.990848,2.47878303 L135.990848,5.57245797 C135.990848,6.25460368 135.762046,6.83106485 135.295289,7.31144916 C134.828533,7.79183347 134.270256,8.03202562 133.62961,8.03202562 L132.805922,8.03202562 L136,11.9807846 L132.741857,11.9807846 L129.584388,8.03202562 L127.030956,8.05124099 L127.030956,8.14731785 Z M127.030956,2.60368295 L127.030956,5.44755805 L133.007268,5.44755805 C133.28183,5.44755805 133.50148,5.21697358 133.50148,4.92874299 L133.50148,3.122498 C133.50148,2.83426741 133.28183,2.60368295 133.007268,2.60368295 L127.030956,2.60368295 L127.030956,2.60368295 Z" id="Shape"></path>
            </g>
        </g>
    </g>
</svg>