<?xml version="1.0" encoding="UTF-8" standalone="yes"?><svg xmlns="http://www.w3.org/2000/svg" xmlns:xlink="http://www.w3.org/1999/xlink" width="180px" height="180px" viewBox="0 0 180 180" version="1.2" baseProfile="tiny-ps"><title>Virtue Poker</title><defs><linearGradient x1="65.1071753%" y1="87.7152979%" x2="27.0384713%" y2="16.831203%" id="linearGradient-1"><stop stop-color="#32E4BF" offset="0%"></stop><stop stop-color="#21A1DE" offset="100%"></stop></linearGradient><linearGradient x1="-2.22044605e-14%" y1="8.83027769%" x2="100%" y2="91.1697223%" id="linearGradient-2"><stop stop-color="#32E4BF" offset="0%"></stop><stop stop-color="#21A1DE" offset="100%"></stop></linearGradient><linearGradient x1="-2.22044605e-14%" y1="11.8336321%" x2="100%" y2="88.1663679%" id="linearGradient-3"><stop stop-color="#32E4BF" offset="0%"></stop><stop stop-color="#21A1DE" offset="100%"></stop></linearGradient></defs><g id="Artboard-Copy" stroke="none" stroke-width="1" fill="none" fill-rule="evenodd"><rect id="Rectangle" fill="#FFFFFF" x="0" y="0" width="180" height="180"></rect><g id="Logo" transform="translate(48.000000, 29.000000)"><g id="Group-3" transform="translate(12.867645, 0.000000)" fill="url(#linearGradient-1)"><path d="M29.1328184,92.8172523 L15.2226007,106 L29.1354223,102.878454 L29.1328184,92.8172523 Z M29.1328184,44.1538876 L58.2656368,60.6635118 L38.2231535,18.9060148 C33.2965096,12.2132751 29.6562092,5.65568987 29.1588578,0.0233920996 L29.148442,0 L29.1328184,44.1538876 Z M29.1328184,44.1538876 L0,60.6635118 L29.148442,75.5148959 L29.1328184,44.1538876 Z M58.2656368,65.2509624 L34.1349764,88.003678 C32.1976492,86.4779933 30.4504092,84.450678 29.1484357,82.1790452 C29.1328184,82.1504548 58.2656368,65.2509624 58.2656368,65.2509624 L58.2656368,65.2509624 Z" id="Fill-1"></path></g><polygon id="Fill-4" fill="url(#linearGradient-2)" points="42.0187614 102.834125 56.3377198 105.911358 42.0160805 92.9157472"></polygon><g id="Group-8" transform="translate(0.000000, 18.907054)" fill="url(#linearGradient-3)"><path d="M79.6991842,33.2557683 C73.473177,24.9905598 60.1228052,12.2730549 51.0897566,0 L71.1192203,41.7289067 L71.13224,41.736704 L71.1244282,41.7419023 L71.13224,41.757497 L71.1140124,41.7471005 L42.0150452,56.606282 L41.9994216,25.2478729 L12.8666031,41.757497 L32.9090865,0 C23.8786419,12.2730549 10.52827,24.9879607 4.29965887,33.2557683 C-4.40529393,44.8114656 0.940583455,61.5342177 12.871811,69.6018929 L12.8666031,69.6096903 C12.9473251,69.6642719 13.0332549,69.7136552 13.1165809,69.7656376 C13.6972582,70.1503077 14.2883513,70.5219822 14.897672,70.8624672 C15.0122451,70.9248461 15.2361835,71.0470049 15.2387874,71.0470049 L15.2882622,71.0314101 C15.7179113,71.2601329 16.168392,71.4810583 16.5928333,71.6681951 C16.7777127,71.751367 17.0589376,71.8631292 17.0927887,71.878724 C17.9000084,72.2140107 18.7202477,72.4817203 19.545695,72.7052448 C19.6602681,72.7312361 19.7748412,72.7650246 19.8894143,72.793615 C19.9675323,72.814408 20.0482543,72.8378001 20.1263723,72.8533948 C20.4336366,72.9287693 20.7409009,72.9885492 21.0481651,73.048329 C21.2538759,73.0847167 21.4569828,73.1159061 21.6626937,73.1496947 C21.7095645,73.1574921 21.7564353,73.1626903 21.8033061,73.1704877 C22.0741153,73.2120737 22.3449245,73.2510605 22.6157337,73.2770517 C22.959453,73.3134394 23.3031723,73.3368315 23.6494956,73.3550254 C23.834375,73.3654219 24.0218582,73.3810166 24.2093415,73.3836157 C24.7535638,73.3966113 25.2951822,73.388814 25.8368005,73.3576245 C25.9331461,73.3524263 26.0268878,73.3394306 26.1206294,73.3316333 C26.5919415,73.2978447 27.0606497,73.2510605 27.5241501,73.1808842 C27.6387232,73.1626903 27.7532963,73.1470956 27.8678694,73.1263026 C28.0449369,73.0977123 28.2194005,73.0561263 28.3938642,73.0223377 C28.6855048,72.9677562 28.9771455,72.9183729 29.2635783,72.8481966 C29.3416963,72.8352009 29.4146064,72.8170071 29.4927245,72.7962141 C29.4953284,72.7962141 29.4979324,72.7962141 29.5031402,72.793615 C32.2190438,72.1152441 34.7787114,70.8494716 37.0102832,69.0872668 L12.8666031,46.3423485 L42.0150452,63.2730304 L71.13224,46.3423485 L47.0041835,69.0976632 C49.2305475,70.857269 51.7850071,72.1152441 54.4983068,72.793615 C54.5009108,72.7962141 54.5035147,72.7962141 54.5061186,72.7962141 C54.5816327,72.8170071 54.6597508,72.8352009 54.7352649,72.8481966 C55.0216976,72.9183729 55.3133383,72.9677562 55.6049789,73.0223377 C55.7794426,73.0561263 55.9539062,73.0977123 56.1309737,73.1263026 C56.2455468,73.1470956 56.3601199,73.1626903 56.474693,73.1808842 C56.9381934,73.2510605 57.4069016,73.2978447 57.8782137,73.3316333 C57.9719553,73.3394306 58.065697,73.3524263 58.1620426,73.3576245 C58.7036609,73.388814 59.2478832,73.3966113 59.7895016,73.3836157 C59.9769849,73.3810166 60.1644681,73.3654219 60.3519514,73.3550254 C60.6956708,73.3368315 61.0393901,73.3134394 61.3831095,73.2770517 C61.6539186,73.2510605 61.9247278,73.2120737 62.195537,73.1704877 L62.3387534,73.1496947 C62.5418603,73.1159061 62.7475711,73.0847167 62.950678,73.048329 C63.2605462,72.9885492 63.5652065,72.9287693 63.8724708,72.8533948 C63.9531927,72.8378001 64.0313108,72.814408 64.1120327,72.793615 C64.2266058,72.7650246 64.341179,72.7312361 64.4557521,72.7052448 C65.2785954,72.4817203 66.0988347,72.2140107 66.9060544,71.878724 C66.9399055,71.8631292 67.2211304,71.751367 67.4060098,71.6681951 C67.8304511,71.4810583 68.2809318,71.2601329 68.7105809,71.0314101 L68.7600557,71.0470049 C68.7626596,71.0470049 68.9892019,70.9248461 69.1011711,70.8624672 C69.7130957,70.5219822 70.3015849,70.1503077 70.8822623,69.7656376 C70.9655882,69.7136552 71.051518,69.6642719 71.13224,69.6096903 L71.1270321,69.6018929 C83.0582596,61.5342177 88.406741,44.8114656 79.6991842,33.2557683" id="Fill-6"></path></g></g></g></svg>